# Blender v2.75 (sub 0) OBJ File: 'TrackStraight.blend'
# www.blender.org
mtllib TrackStraight.mtl
o Slats_Cube.008
v -4.315388 0.116276 2.209023
v -4.315388 0.340409 2.209023
v -4.315388 0.116276 -2.209023
v -4.315388 0.340409 -2.209023
v -3.963338 0.116276 2.209023
v -3.963338 0.340409 2.209023
v -3.963338 0.116276 -2.209023
v -3.963338 0.340409 -2.209023
v -3.223321 0.116276 2.209023
v -3.223321 0.340409 2.209023
v -3.223321 0.116276 -2.209023
v -3.223321 0.340409 -2.209023
v -2.871271 0.116276 2.209023
v -2.871271 0.340409 2.209023
v -2.871271 0.116276 -2.209023
v -2.871271 0.340409 -2.209023
v -2.120695 0.116276 2.209023
v -2.120695 0.340409 2.209023
v -2.120695 0.116276 -2.209023
v -2.120695 0.340409 -2.209023
v -1.768645 0.116276 2.209023
v -1.768645 0.340409 2.209023
v -1.768645 0.116276 -2.209023
v -1.768645 0.340409 -2.209023
v -0.999782 0.116276 2.209023
v -0.999782 0.340409 2.209023
v -0.999782 0.116276 -2.209023
v -0.999782 0.340409 -2.209023
v -0.647732 0.116276 2.209023
v -0.647732 0.340409 2.209023
v -0.647732 0.116276 -2.209023
v -0.647732 0.340409 -2.209023
v 1.962678 0.116276 2.209023
v 1.962678 0.340409 2.209023
v 1.962678 0.116276 -2.209023
v 1.962678 0.340409 -2.209023
v 2.314728 0.116276 2.209023
v 2.314728 0.340409 2.209023
v 2.314728 0.116276 -2.209023
v 2.314728 0.340409 -2.209023
v 2.914652 0.116276 2.209023
v 2.914652 0.340409 2.209023
v 2.914652 0.116276 -2.209023
v 2.914652 0.340409 -2.209023
v 3.266703 0.116276 2.209023
v 3.266703 0.340409 2.209023
v 3.266703 0.116276 -2.209023
v 3.266703 0.340409 -2.209023
v 1.047877 0.116276 2.209023
v 1.047877 0.340409 2.209023
v 1.047877 0.116276 -2.209023
v 1.047877 0.340409 -2.209023
v 1.399927 0.116276 2.209023
v 1.399927 0.340409 2.209023
v 1.399927 0.116276 -2.209023
v 1.399927 0.340409 -2.209023
v 0.058405 0.116276 2.209023
v 0.058405 0.340409 2.209023
v 0.058405 0.116276 -2.209023
v 0.058405 0.340409 -2.209023
v 0.410455 0.116276 2.209023
v 0.410455 0.340409 2.209023
v 0.410455 0.116276 -2.209023
v 0.410455 0.340409 -2.209023
vn -1.000000 0.000000 0.000000
vn 0.000000 0.000000 -1.000000
vn 1.000000 0.000000 0.000000
vn 0.000000 0.000000 1.000000
vn 0.000000 -1.000000 0.000000
vn 0.000000 1.000000 0.000000
usemtl None
s off
f 2//1 4//1 3//1 1//1
f 4//2 8//2 7//2 3//2
f 8//3 6//3 5//3 7//3
f 6//4 2//4 1//4 5//4
f 1//5 3//5 7//5 5//5
f 6//6 8//6 4//6 2//6
f 10//1 12//1 11//1 9//1
f 12//2 16//2 15//2 11//2
f 16//3 14//3 13//3 15//3
f 14//4 10//4 9//4 13//4
f 9//5 11//5 15//5 13//5
f 14//6 16//6 12//6 10//6
f 18//1 20//1 19//1 17//1
f 20//2 24//2 23//2 19//2
f 24//3 22//3 21//3 23//3
f 22//4 18//4 17//4 21//4
f 17//5 19//5 23//5 21//5
f 22//6 24//6 20//6 18//6
f 26//1 28//1 27//1 25//1
f 28//2 32//2 31//2 27//2
f 32//3 30//3 29//3 31//3
f 30//4 26//4 25//4 29//4
f 25//5 27//5 31//5 29//5
f 30//6 32//6 28//6 26//6
f 34//1 36//1 35//1 33//1
f 36//2 40//2 39//2 35//2
f 40//3 38//3 37//3 39//3
f 38//4 34//4 33//4 37//4
f 33//5 35//5 39//5 37//5
f 38//6 40//6 36//6 34//6
f 42//1 44//1 43//1 41//1
f 44//2 48//2 47//2 43//2
f 48//3 46//3 45//3 47//3
f 46//4 42//4 41//4 45//4
f 41//5 43//5 47//5 45//5
f 46//6 48//6 44//6 42//6
f 50//1 52//1 51//1 49//1
f 52//2 56//2 55//2 51//2
f 56//3 54//3 53//3 55//3
f 54//4 50//4 49//4 53//4
f 49//5 51//5 55//5 53//5
f 54//6 56//6 52//6 50//6
f 58//1 60//1 59//1 57//1
f 60//2 64//2 63//2 59//2
f 64//3 62//3 61//3 63//3
f 62//4 58//4 57//4 61//4
f 57//5 59//5 63//5 61//5
f 62//6 64//6 60//6 58//6
o Rails_Cube.001
v -4.934202 0.007769 -2.003838
v -4.934202 0.500038 -2.003838
v -4.934202 0.007769 -2.529516
v -4.934202 0.500038 -2.529516
v 4.028411 0.007769 -2.003838
v 4.028411 0.500038 -2.003838
v 4.028411 0.007769 -2.529516
v 4.028411 0.500038 -2.529516
v -4.934202 0.007769 2.565371
v -4.934202 0.500038 2.565371
v -4.934202 0.007769 2.039693
v -4.934202 0.500038 2.039693
v 4.028411 0.007769 2.565371
v 4.028411 0.500038 2.565371
v 4.028411 0.007769 2.039693
v 4.028411 0.500038 2.039693
vn -1.000000 0.000000 0.000000
vn 0.000000 0.000000 -1.000000
vn 1.000000 0.000000 0.000000
vn 0.000000 0.000000 1.000000
vn 0.000000 -1.000000 0.000000
vn 0.000000 1.000000 0.000000
usemtl None
s off
f 66//7 68//7 67//7 65//7
f 68//8 72//8 71//8 67//8
f 72//9 70//9 69//9 71//9
f 70//10 66//10 65//10 69//10
f 65//11 67//11 71//11 69//11
f 70//12 72//12 68//12 66//12
f 74//7 76//7 75//7 73//7
f 76//8 80//8 79//8 75//8
f 80//9 78//9 77//9 79//9
f 78//10 74//10 73//10 77//10
f 73//11 75//11 79//11 77//11
f 78//12 80//12 76//12 74//12
